HIERARCHY
ROOT Hips
{
	OFFSET 0.000000 0.000000 0.000000
	CHANNELS 6 Xposition Yposition Zposition Zrotation Yrotation Xrotation 
	JOINT LHipJoint
	{
		OFFSET 0.000000 0.000000 0.000000
		CHANNELS 3 Zrotation Yrotation Xrotation
		JOINT LeftUpLeg
		{
			OFFSET 1.363060 -1.794630 0.839290
			CHANNELS 3 Zrotation Yrotation Xrotation
			JOINT LeftLeg
			{
				OFFSET 2.448110 -6.726130 0.000000
				CHANNELS 3 Zrotation Yrotation Xrotation
				JOINT LeftFoot
				{
					OFFSET 2.562200 -7.039590 0.000000
					CHANNELS 3 Zrotation Yrotation Xrotation
					JOINT LeftToeBase
					{
						OFFSET 0.157640 -0.433110 2.322550
						CHANNELS 3 Zrotation Yrotation Xrotation
						End Site
						{
							OFFSET 0.000000 0.000000 0.000000
						}
					}
				}
			}
		}
	}
	JOINT RHipJoint
	{
		OFFSET 0.000000 0.000000 0.000000
		CHANNELS 3 Zrotation Yrotation Xrotation
		JOINT RightUpLeg
		{
			OFFSET -1.305520 -1.794630 0.839290
			CHANNELS 3 Zrotation Yrotation Xrotation
			JOINT RightLeg
			{
				OFFSET -2.542530 -6.985550 0.000000
				CHANNELS 3 Zrotation Yrotation Xrotation
				JOINT RightFoot
				{
					OFFSET -2.568260 -7.056230 0.000000
					CHANNELS 3 Zrotation Yrotation Xrotation
					JOINT RightToeBase
					{
						OFFSET -0.164730 -0.452590 2.363150
						CHANNELS 3 Zrotation Yrotation Xrotation
						End Site
						{
							OFFSET 0.000000 0.000000 0.000000
						}
					}
				}
			}
		}
	}
	JOINT LowerBack
	{
		OFFSET 0.000000 0.000000 0.000000
		CHANNELS 3 Zrotation Yrotation Xrotation
		JOINT Spine
		{
			OFFSET 0.028270 2.035590 -0.193380
			CHANNELS 3 Zrotation Yrotation Xrotation
			JOINT Spine1
			{
				OFFSET 0.056720 2.048850 -0.042750
				CHANNELS 3 Zrotation Yrotation Xrotation
				JOINT Neck
				{
					OFFSET 0.000000 0.000000 0.000000
					CHANNELS 3 Zrotation Yrotation Xrotation
					JOINT Neck1
					{
						OFFSET -0.054170 1.746240 0.172020
						CHANNELS 3 Zrotation Yrotation Xrotation
						JOINT Head
						{
							OFFSET 0.104070 1.761360 -0.123970
							CHANNELS 3 Zrotation Yrotation Xrotation
							End Site
							{
								OFFSET 0.000000 0.000000 0.000000
							}
						}
					}
				}
				JOINT LeftShoulder
				{
					OFFSET 0.000000 0.000000 0.000000
					CHANNELS 3 Zrotation Yrotation Xrotation
					JOINT LeftArm
					{
						OFFSET 3.362410 1.200890 -0.311210
						CHANNELS 3 Zrotation Yrotation Xrotation
						JOINT LeftForeArm
						{
							OFFSET 4.983000 -0.000000 -0.000000
							CHANNELS 3 Zrotation Yrotation Xrotation
							JOINT LeftHand
							{
								OFFSET 3.483560 -0.000000 -0.000000
								CHANNELS 3 Zrotation Yrotation Xrotation
								JOINT LeftFingerBase
								{
									OFFSET 0.000000 0.000000 0.000000
									CHANNELS 3 Zrotation Yrotation Xrotation
									JOINT LeftHandIndex1
									{
										OFFSET 0.715260 -0.000000 -0.000000
										CHANNELS 3 Zrotation Yrotation Xrotation
										End Site
										{
											OFFSET 0.000000 0.000000 0.000000
										}
									}
								}
								JOINT LThumb
								{
									OFFSET 0.000000 0.000000 0.000000
									CHANNELS 3 Zrotation Yrotation Xrotation
									End Site
									{
										OFFSET 0.000000 0.000000 0.000000
									}
								}
							}
						}
					}
				}
				JOINT RightShoulder
				{
					OFFSET 0.000000 0.000000 0.000000
					CHANNELS 3 Zrotation Yrotation Xrotation
					JOINT RightArm
					{
						OFFSET -3.136600 1.374050 -0.404650
						CHANNELS 3 Zrotation Yrotation Xrotation
						JOINT RightForeArm
						{
							OFFSET -5.241900 -0.000000 -0.000000
							CHANNELS 3 Zrotation Yrotation Xrotation
							JOINT RightHand
							{
								OFFSET -3.444170 -0.000000 -0.000000
								CHANNELS 3 Zrotation Yrotation Xrotation
								JOINT RightFingerBase
								{
									OFFSET 0.000000 0.000000 0.000000
									CHANNELS 3 Zrotation Yrotation Xrotation
									JOINT RightHandIndex1
									{
										OFFSET -0.622530 -0.000000 -0.000000
										CHANNELS 3 Zrotation Yrotation Xrotation
										End Site
										{
											OFFSET 0.000000 0.000000 0.000000
										}
									}
								}
								JOINT RThumb
								{
									OFFSET 0.000000 0.000000 0.000000
									CHANNELS 3 Zrotation Yrotation Xrotation
									End Site
									{
										OFFSET 0.000000 0.000000 0.000000
									}
								}
							}
						}
					}
				}
			}
		}
	}
}
MOTION
Frames: 12
Frame Time: 0.008333
-30.580781 17.466135 0.922739 47.099786 87.804195 42.819955 2.454353 -1.817928 -0.067120 -17.872868 4.223187 12.802204 -1.770645 0.531482 1.496277 -0.375725 6.327862 -9.783596 0.440800 -4.260200 -11.810000 -5.287585 4.870061 -7.065119 19.803798 -10.782293 17.175934 -0.573868 -3.659961 5.131826 -0.583833 1.358926 -16.422358 -0.163700 -2.607000 7.186400 -2.388626 1.374265 8.228624 -0.294043 1.698746 -2.277781 1.327076 0.508999 2.183314 0.469682 1.819988 -19.255508 3.935593 2.162151 11.713780 -0.750600 1.413400 12.671000 6.154669 -0.426219 -0.226361 -93.547989 -0.638103 39.112126 10.936485 -19.066802 -2.041656 -0.118332 0.787029 18.295523 14.199335 -25.923755 -6.635600 -7.125000 0.000000 0.000000 -9.237900 2.918400 8.873400 -4.486391 0.436116 1.766586 5.175380 -0.759639 0.013067 -1.040056 -0.267664 0.000176 -0.060357 0.018489 0.000088 -0.060357 0.018489 0.000000 0.000000 0.000000 0.000000 0.000000 0.000000 0.000000 
-30.584977 17.472071 0.929289 43.408122 87.928331 39.125547 2.391430 -1.887947 -0.097280 -17.510157 4.279178 12.842776 -1.760889 0.498903 1.475063 -0.366619 6.246562 -9.830214 0.478600 -4.436600 -12.308200 -5.397720 4.715814 -7.012889 20.330821 -10.458026 16.877193 -0.577338 -3.836908 5.580086 -0.597891 1.283985 -16.710995 -0.159300 -2.571700 7.088400 -2.252697 1.379807 8.364555 -0.259563 1.722961 -2.282875 1.371542 0.502263 2.074758 0.312144 1.797442 -19.178712 4.099095 2.175726 11.591301 -0.615100 1.415500 12.570900 6.148118 -0.444417 -0.223325 -93.597086 -0.728408 39.057373 10.844413 -18.919339 -2.009097 -0.124848 0.788204 18.410495 14.501459 -25.800641 -6.752700 -7.125000 0.000000 0.000000 -9.043100 2.999400 8.667800 -4.491393 0.436782 1.771419 5.174355 -0.769045 0.013101 -1.039153 -0.267388 0.000177 -0.060319 0.018615 0.000088 -0.060319 0.018615 0.000000 0.000000 0.000000 0.000000 0.000000 0.000000 0.000000 
-30.587331 17.471866 0.933997 40.727219 87.909458 36.496793 2.334316 -1.945173 -0.119698 -17.322938 4.417050 12.779127 -1.754265 0.484402 1.461878 -0.371141 6.269747 -9.823075 0.531700 -4.672700 -12.977300 -5.495859 4.588398 -6.958497 20.672629 -10.101198 16.400765 -0.592500 -4.098068 6.289144 -0.626232 1.328377 -17.138208 -0.195300 -2.845600 7.849200 -2.202348 1.388283 8.417217 -0.249159 1.743001 -2.298910 1.350714 0.504321 1.983491 0.316522 1.839668 -19.145465 4.146008 2.234339 11.589647 -0.579700 1.446900 12.567000 6.147780 -0.458844 -0.224681 -93.551267 -0.703109 39.106319 10.803193 -18.851232 -1.993627 -0.142834 0.792277 18.393693 15.173433 -25.706578 -7.054300 -7.125000 0.000000 0.000000 -8.621500 2.996500 8.254300 -4.489868 0.434517 1.773091 5.173602 -0.775990 0.013121 -1.038718 -0.267103 0.000177 -0.060301 0.018701 0.000088 -0.060301 0.018702 0.000000 0.000000 0.000000 0.000000 0.000000 0.000000 0.000000 
-30.586409 17.472582 0.939217 36.128672 87.856550 31.990197 2.227699 -2.035030 -0.151916 -17.067226 4.537321 12.801371 -1.751696 0.408579 1.301219 -0.406514 6.524923 -9.769806 0.604400 -4.976600 -13.841700 -5.661778 4.409363 -6.890083 21.144486 -9.717779 15.873655 -0.611665 -4.352933 6.965417 -0.649229 1.437135 -17.462413 -0.197500 -2.862000 7.894700 -2.099208 1.413434 8.411021 -0.231534 1.792340 -2.319168 1.298715 0.512622 1.932674 0.356998 1.860880 -19.286856 4.151698 2.257035 11.646646 -0.577900 1.462500 12.651700 6.153672 -0.479650 -0.231786 -93.550723 -0.653730 38.877969 10.796051 -18.835288 -1.991308 -0.140805 0.793259 18.583813 15.222595 -25.687832 -7.073300 -7.125000 0.000000 0.000000 -8.590000 3.007800 8.221800 -4.481741 0.425978 1.771301 5.170454 -0.784188 0.013121 -1.037326 -0.266388 0.000177 -0.060245 0.018785 0.000088 -0.060245 0.018785 0.000000 0.000000 0.000000 0.000000 0.000000 0.000000 0.000000 
-30.591322 17.477086 0.947507 37.520042 87.676192 33.261200 2.258929 -2.013415 -0.148068 -17.185785 4.795644 12.840679 -1.742811 0.413549 1.284983 -0.390279 6.376424 -9.646375 0.623300 -5.052000 -14.057000 -5.634560 4.430689 -6.894447 21.118098 -9.473922 15.812379 -0.622228 -4.492285 7.385669 -0.666043 1.345160 -17.718312 -0.143100 -2.438100 6.718000 -2.332701 1.447546 8.701219 -0.249160 1.825984 -2.310859 1.378284 0.536371 1.829594 0.339083 1.887048 -19.385667 4.162688 2.296860 11.609098 -0.563600 1.475000 12.666900 6.152573 -0.482335 -0.236780 -93.475828 -0.624101 39.063607 10.861419 -18.927583 -2.014115 -0.136067 0.785044 18.347403 14.948773 -25.501585 -6.893700 -7.125000 0.000000 0.000000 -8.746900 3.240100 8.337800 -4.488056 0.446832 1.785346 5.183520 -0.788995 0.013291 -1.044495 -0.268146 0.000179 -0.060363 0.018961 0.000090 -0.060363 0.018961 0.000000 0.000000 0.000000 0.000000 0.000000 0.000000 0.000000 
-30.592857 17.475550 0.954466 37.603221 87.585697 33.402810 2.255851 -2.015208 -0.156089 -17.231301 4.800994 12.789355 -1.743545 0.434112 1.327233 -0.379723 6.324035 -9.744578 0.586300 -4.902500 -13.630600 -5.657295 4.390502 -6.872083 21.316574 -9.041544 15.528459 -0.640823 -4.674377 7.908324 -0.689211 1.226528 -18.086394 -0.113300 -2.169800 5.975200 -2.380271 1.492000 8.722928 -0.284721 1.886431 -2.300016 1.249325 0.572884 1.868278 0.602278 1.889080 -19.591934 4.059545 2.199102 11.578086 -0.694400 1.445500 12.713600 6.154685 -0.490401 -0.239248 -93.226923 -0.652920 39.515321 10.950217 -19.053484 -2.043311 -0.152625 0.775890 17.887729 15.251878 -25.117555 -6.941000 -7.125000 0.000000 0.000000 -8.531000 3.592500 8.071200 -4.480151 0.450440 1.787907 5.179295 -0.794388 0.013303 -1.043632 -0.267835 0.000179 -0.060334 0.019039 0.000090 -0.060334 0.019039 0.000000 0.000000 0.000000 0.000000 0.000000 0.000000 0.000000 
-30.596132 17.472378 0.963882 37.119654 87.593860 33.050264 2.239919 -2.014943 -0.167774 -17.261396 4.469885 12.818007 -1.762418 0.395210 1.224435 -0.425568 6.714149 -9.845013 0.570900 -4.838800 -13.449300 -5.707739 4.319901 -6.824878 21.683634 -8.548750 15.105409 -0.664692 -4.903879 8.548491 -0.717396 1.112873 -18.520251 -0.113900 -2.176100 5.992500 -2.406833 1.428506 8.682271 -0.266947 1.795754 -2.319139 1.303530 0.529308 1.803856 0.591827 1.957203 -19.460683 4.034917 2.286230 11.466876 -0.701500 1.473300 12.607600 6.163755 -0.501024 -0.232867 -93.276290 -0.523891 39.239159 10.982809 -19.108891 -2.055405 -0.161306 0.771147 17.896646 15.499675 -24.881516 -6.997300 -7.125000 0.000000 0.000000 -8.359000 3.800900 7.872200 -4.481010 0.443350 1.787957 5.190723 -0.797461 0.013371 -1.047591 -0.268740 0.000180 -0.060437 0.019096 0.000090 -0.060437 0.019096 0.000000 0.000000 0.000000 0.000000 0.000000 0.000000 0.000000 
-30.600533 17.470740 0.978415 37.082261 87.614422 33.123556 2.240546 -2.007931 -0.176982 -17.204716 4.350548 12.804370 -1.767796 0.337812 1.075229 -0.449862 6.876881 -9.759485 0.510400 -4.579600 -12.713200 -5.741028 4.271608 -6.789671 22.013233 -8.198446 14.791531 -0.680179 -5.078741 9.028409 -0.738519 0.940655 -18.878550 -0.122800 -2.258700 6.221200 -2.450611 1.401406 8.696056 -0.271645 1.754328 -2.326645 1.301500 0.515796 1.738743 0.583185 1.975421 -19.311901 3.986799 2.290640 11.257700 -0.731900 1.458300 12.433800 6.166285 -0.514898 -0.222358 -93.212942 -0.373195 39.030922 11.075568 -19.250638 -2.088716 -0.155570 0.768306 18.055424 15.364506 -24.839027 -6.922200 -7.125000 0.000000 0.000000 -8.440500 3.865600 7.940500 -4.481475 0.439289 1.790261 5.190957 -0.805953 0.013389 -1.046821 -0.268599 0.000180 -0.060455 0.019196 0.000090 -0.060455 0.019196 0.000000 0.000000 0.000000 0.000000 0.000000 0.000000 0.000000 
-30.602478 17.467261 0.993255 37.162503 87.617912 33.299942 2.243803 -2.006011 -0.181352 -17.022349 4.603730 12.611762 -1.749510 0.345888 1.099949 -0.416473 6.551385 -9.581752 0.462000 -4.359900 -12.091500 -5.761561 4.242170 -6.771799 22.259735 -7.931177 14.607428 -0.688520 -5.172815 9.284736 -0.758325 0.815842 -19.191670 -0.141900 -2.427600 6.688800 -2.508575 1.374713 8.694089 -0.281745 1.716068 -2.311935 1.284648 0.500926 1.761236 0.617692 1.982427 -19.264455 3.877419 2.262632 11.046683 -0.811300 1.424800 12.284700 6.173158 -0.530937 -0.209414 -93.052746 -0.260793 39.134549 11.241809 -19.504366 -2.148137 -0.144227 0.765567 17.937180 14.930933 -24.969017 -6.750400 -7.125000 0.000000 0.000000 -8.720800 3.796200 8.221700 -4.477845 0.429465 1.789199 5.190657 -0.813630 0.013394 -1.045893 -0.268420 0.000180 -0.060464 0.019269 0.000090 -0.060464 0.019269 0.000000 0.000000 0.000000 0.000000 0.000000 0.000000 0.000000 
-30.597258 17.456310 1.017101 40.154952 86.654853 36.164414 2.300529 -2.018094 -0.180349 -17.794091 5.714576 12.513858 -1.727471 0.379325 1.039331 -0.364051 6.179160 -9.451473 0.522200 -4.631200 -12.859700 -5.658635 4.367441 -6.822697 21.080579 -8.267995 14.384503 -0.748795 -5.361986 9.922873 -0.787913 2.058618 -19.002112 -0.137800 -2.392400 6.591300 -3.538826 1.600082 8.772762 -0.359267 1.964741 -2.261433 1.631582 0.625025 1.852684 0.525064 1.976855 -19.379796 4.027023 2.289609 11.013701 -0.712300 1.442300 12.287900 6.165324 -0.498808 -0.208400 -93.078970 -0.363499 38.460286 11.147473 -19.383643 -2.119393 -0.125897 0.774063 18.522395 14.718221 -25.299590 -6.731100 -7.125000 0.000000 0.000000 -8.877700 3.484900 8.425100 -4.509081 0.453286 1.801625 5.240683 -0.793226 0.013738 -1.069816 -0.274532 0.000185 -0.060910 0.019243 0.000093 -0.060910 0.019243 0.000000 0.000000 0.000000 0.000000 0.000000 0.000000 0.000000 
-30.597053 17.452318 1.031225 43.100528 86.500319 39.016072 2.356464 -1.969035 -0.166578 -17.965947 5.987571 12.446879 -1.715560 0.418139 1.095648 -0.329129 5.865648 -9.304964 0.555200 -4.773200 -13.262700 -5.583578 4.441491 -6.839884 20.795618 -8.232376 14.295268 -0.774864 -5.521729 10.419488 -0.814403 2.257220 -19.223301 -0.136900 -2.385100 6.571200 -3.882669 1.594662 8.932914 -0.385118 1.936883 -2.237368 1.767128 0.615091 1.877049 0.426748 1.983071 -19.523088 4.207276 2.342332 11.048589 -0.578200 1.477000 12.346000 6.146980 -0.467963 -0.216493 -93.020509 -0.412431 38.341825 11.131545 -19.357842 -2.112620 -0.159651 0.781646 18.524418 16.023515 -25.140792 -7.311500 -7.125000 0.000000 0.000000 -8.055600 3.455200 7.632600 -4.531469 0.485146 1.815657 5.253136 -0.782809 0.013873 -1.077246 -0.276752 0.000187 -0.061016 0.019243 0.000094 -0.061016 0.019243 0.000000 0.000000 0.000000 0.000000 0.000000 0.000000 0.000000 
-30.597770 17.452421 1.047395 45.874651 86.370979 41.731998 2.398859 -1.919031 -0.149831 -18.120071 6.129296 12.363903 -1.708597 0.448634 1.135091 -0.298594 5.601198 -9.229395 0.547800 -4.741400 -13.172500 -5.528842 4.493511 -6.850401 20.736841 -7.912973 14.265318 -0.791958 -5.653179 10.836889 -0.837732 1.878977 -19.601060 -0.130100 -2.324600 6.403700 -4.198895 1.564958 9.096490 -0.405707 1.873173 -2.226764 1.875200 0.593190 1.853026 0.421476 2.026361 -19.618859 4.201869 2.406215 11.053663 -0.575700 1.502000 12.380800 6.144397 -0.457497 -0.220001 -92.982721 -0.373556 38.203232 11.151912 -19.393436 -2.123207 -0.114831 0.776629 18.433268 14.444257 -25.510176 -6.650400 -7.125000 0.000000 0.000000 -9.064500 3.306900 8.637100 -4.540996 0.502437 1.825367 5.270583 -0.779028 0.014032 -1.086207 -0.279057 0.000189 -0.061177 0.019307 0.000095 -0.061177 0.019307 0.000000 0.000000 0.000000 0.000000 0.000000 0.000000 0.000000 
